<svg width="40" height="40" viewBox="0 0 40 40" fill="none" xmlns="http://www.w3.org/2000/svg">
<path d="M16.6667 39.7778C7.22222 38.1111 0 29.8889 0 20C0 9 9 0 20 0C31 0 40 9 40 20C40 29.8889 32.7778 38.1111 23.3333 39.7778L22.2222 38.8889H17.7778L16.6667 39.7778Z" fill="url(#paint0_linear_217_2)"/>
<path d="M27.9032 26.5517L28.7806 21.3793H23.5161V17.7586C23.5161 16.3103 24.0645 15.1724 26.4774 15.1724H29V10.4138C27.5742 10.2069 26.0387 10 24.6129 10C20.1161 10 16.9355 12.5862 16.9355 17.2414V21.3793H12V26.5517H16.9355V39.6897C18.0323 39.8966 19.129 40 20.2258 40C21.3226 40 22.4194 39.8966 23.5161 39.6897V26.5517H27.9032Z" fill="white"/>
<defs>
<linearGradient id="paint0_linear_217_2" x1="20" y1="38.6156" x2="20" y2="0" gradientUnits="userSpaceOnUse">
<stop stop-color="#0062E0"/>
<stop offset="1" stop-color="#19AFFF"/>
</linearGradient>
</defs>
</svg>
