<svg width="16" height="16" viewBox="0 0 16 16" fill="none" xmlns="http://www.w3.org/2000/svg">
<g clip-path="url(#clip0_32_17)">
<path d="M8.00069 0C3.58956 0 0.000976562 3.58878 0.000976562 7.9999C0.000976562 12.4112 3.58956 16 8.00069 16C12.4118 16 16.0006 12.4112 16.0006 7.9999C16.0006 3.58878 12.4116 0 8.00069 0ZM8.00069 14.8434C4.22743 14.8434 1.1574 11.7734 1.1574 7.9999C1.1574 4.22646 4.22724 1.15661 8.00069 1.15661C11.7741 1.15661 14.844 4.22646 14.844 7.9999C14.844 11.7734 11.7741 14.8434 8.00069 14.8434Z" fill="#2E2E2E"/>
<path d="M10.3146 8.73633C10.3116 8.73633 10.3089 8.73633 10.3058 8.73633L8.57818 8.76216V4.24097C8.57818 3.92155 8.31929 3.66266 7.99988 3.66266C7.68046 3.66266 7.42157 3.92155 7.42157 4.24097V9.34934C7.42157 9.35049 7.42196 9.35165 7.42196 9.35281C7.42196 9.35474 7.42157 9.35647 7.42157 9.35801C7.42196 9.38153 7.42639 9.4037 7.42947 9.42625C7.4314 9.44032 7.43159 9.45478 7.43429 9.46866C7.4395 9.49353 7.44817 9.51666 7.45646 9.53999C7.4607 9.55213 7.4634 9.56485 7.46841 9.57642C7.47844 9.60013 7.49193 9.62172 7.50485 9.64389C7.51082 9.65372 7.51526 9.66451 7.52162 9.67415C7.53627 9.69555 7.55381 9.71463 7.57116 9.7341C7.57848 9.7422 7.58446 9.75145 7.59217 9.75936C7.61087 9.77786 7.63188 9.79348 7.65289 9.80948C7.66137 9.81584 7.66889 9.82355 7.67757 9.82952C7.70031 9.84495 7.72518 9.85709 7.75005 9.86904C7.75872 9.87309 7.76643 9.87887 7.7753 9.88254C7.80422 9.89468 7.83506 9.90316 7.86629 9.91068C7.87207 9.91203 7.87747 9.91473 7.88344 9.91588C7.92084 9.9234 7.95959 9.92764 7.9993 9.92764C8.00219 9.92764 8.00527 9.92764 8.00816 9.92764L10.3229 9.89295C10.6422 9.88813 10.8972 9.62519 10.8926 9.30596C10.8881 8.98963 10.63 8.73633 10.3146 8.73633Z" fill="#2E2E2E"/>
</g>
<defs>
<clipPath id="clip0_32_17">
<rect width="16" height="16" fill="white"/>
</clipPath>
</defs>
</svg>
