<?xml version="1.0" standalone="no"?>
<!DOCTYPE svg PUBLIC "-//W3C//DTD SVG 20010904//EN"
 "http://www.w3.org/TR/2001/REC-SVG-20010904/DTD/svg10.dtd">
<svg version="1.0" xmlns="http://www.w3.org/2000/svg"
 width="742.000000pt" height="742.000000pt" viewBox="0 0 742.000000 742.000000"
 preserveAspectRatio="xMidYMid meet">
<metadata>
Created by potrace 1.14, written by Peter Selinger 2001-2017
</metadata>
<g transform="translate(0.000000,742.000000) scale(0.100000,-0.100000)"
fill="#000000" stroke="none">
<path d="M3605 6621 c-134 -33 -257 -112 -320 -206 -65 -95 -88 -157 -93 -245
-5 -103 18 -230 54 -295 33 -58 167 -181 222 -201 23 -9 42 -21 42 -26 0 -5
-11 -53 -24 -106 -13 -53 -28 -117 -32 -142 -4 -25 -8 -47 -9 -50 0 -3 -11
-36 -23 -75 -12 -38 -33 -110 -48 -160 -14 -49 -32 -103 -39 -120 -7 -16 -27
-73 -43 -125 -16 -52 -46 -140 -67 -195 -20 -55 -40 -111 -45 -125 -4 -14 -21
-52 -38 -85 -16 -33 -32 -73 -36 -88 -4 -15 -20 -58 -37 -95 -17 -37 -40 -89
-51 -117 -11 -27 -38 -84 -60 -125 -22 -41 -61 -113 -86 -160 -24 -47 -49 -89
-53 -94 -5 -6 -9 -17 -9 -26 0 -9 -16 -43 -36 -76 -31 -49 -116 -194 -158
-269 -6 -11 -24 -40 -40 -64 -16 -25 -38 -65 -50 -90 -19 -41 -38 -71 -122
-195 -31 -46 -100 -105 -131 -112 -16 -4 -35 -12 -43 -19 -25 -20 -96 -33
-161 -28 -98 7 -131 35 -375 328 -306 368 -525 680 -784 1120 -169 287 -363
666 -345 672 31 10 139 90 161 118 14 19 37 66 50 105 93 266 -88 521 -367
521 -74 0 -180 -28 -195 -52 -3 -5 -29 -27 -58 -48 -58 -43 -111 -115 -126
-171 -35 -132 -24 -227 39 -331 34 -56 87 -109 109 -109 6 0 12 -4 12 -8 0 -8
76 -47 91 -47 4 0 11 -3 15 -7 4 -5 18 -8 31 -8 27 0 24 30 24 -300 -1 -261
10 -443 40 -660 11 -80 21 -162 22 -182 1 -21 4 -38 7 -38 3 0 7 -15 8 -32 1
-18 12 -80 23 -138 11 -58 23 -116 25 -130 3 -14 7 -33 10 -42 3 -10 7 -28 10
-40 3 -20 26 -111 38 -158 3 -8 9 -33 15 -55 56 -220 189 -601 277 -793 13
-29 24 -55 24 -58 0 -2 16 -36 35 -75 19 -39 32 -76 28 -82 -3 -6 -1 -7 5 -3
17 10 14 -15 -3 -38 -8 -11 -15 -28 -15 -38 0 -10 -5 -18 -10 -18 -20 0 -50
-65 -50 -107 0 -24 -4 -43 -9 -43 -15 0 6 -63 26 -80 10 -8 26 -32 35 -52 17
-36 18 -37 65 -32 26 2 64 6 83 9 61 8 124 16 175 20 69 6 164 16 199 20 16 2
68 7 115 10 47 3 97 8 111 10 14 2 68 7 120 10 52 3 106 8 120 10 14 2 81 7
150 10 69 3 145 8 170 10 25 3 101 7 170 10 69 3 168 8 220 11 452 23 1355 23
1820 0 41 -2 140 -7 220 -10 80 -4 165 -9 190 -11 25 -3 88 -7 140 -10 52 -3
120 -7 150 -10 30 -3 87 -7 125 -10 114 -9 187 -15 235 -20 43 -5 65 -7 210
-20 62 -5 87 -8 190 -20 25 -3 68 -7 95 -10 28 -3 66 -8 85 -10 45 -6 95 -12
200 -25 47 -6 96 -12 110 -14 14 -3 47 -7 74 -11 27 -3 52 -8 56 -10 4 -2 13
4 22 13 8 9 25 24 36 32 12 8 22 20 22 27 0 7 4 13 8 13 5 0 9 6 10 13 0 6 4
32 8 57 5 25 8 77 8 116 1 62 -4 80 -36 145 -31 61 -35 76 -24 89 18 21 148
329 176 415 13 39 26 75 30 80 4 6 17 44 29 85 12 41 37 112 56 156 19 45 39
101 45 125 5 24 24 94 40 154 17 61 35 135 39 166 5 30 18 89 29 130 35 124
64 316 77 494 3 44 10 114 15 155 17 138 32 403 35 635 l2 230 66 30 c84 39
135 86 175 162 35 67 61 169 55 210 -14 93 -50 181 -95 229 -40 43 -113 92
-164 111 -72 26 -214 24 -274 -4 -25 -12 -55 -24 -67 -28 -13 -3 -40 -23 -61
-44 -89 -88 -141 -212 -137 -326 2 -76 61 -201 116 -248 67 -57 114 -88 117
-78 5 16 28 13 42 -4 11 -13 10 -18 -7 -30 -11 -7 -25 -33 -32 -57 -22 -76
-251 -501 -406 -753 -37 -60 -79 -130 -94 -154 -22 -37 -419 -609 -583 -841
-126 -179 -240 -300 -282 -300 -9 0 -16 -4 -16 -8 0 -16 -84 -37 -141 -36 -81
2 -113 25 -221 165 -278 359 -579 833 -713 1124 -214 462 -299 679 -408 1035
-43 139 -85 293 -103 375 -15 69 -17 67 85 124 34 19 85 58 114 86 45 44 58
66 88 146 31 85 34 104 34 199 0 91 -4 114 -26 167 -66 157 -224 283 -390 312
-83 14 -98 13 -184 -8z"/>
<path d="M1642 5272 c-60 -19 -133 -78 -158 -126 -68 -135 -67 -196 6 -311 29
-45 78 -95 94 -95 6 0 30 -17 54 -39 54 -50 54 -55 7 -251 -2 -8 -13 -55 -24
-105 -26 -116 -60 -227 -106 -351 l-37 -98 46 -93 c25 -51 46 -95 46 -99 0
-19 97 -147 147 -194 110 -103 152 -140 158 -140 3 0 30 -18 59 -40 29 -22 58
-40 64 -40 7 0 12 -5 12 -10 0 -6 3 -9 8 -8 4 0 15 -3 26 -7 10 -5 25 -4 32 1
8 5 56 36 106 69 89 57 238 188 238 208 0 5 8 17 19 26 24 21 83 133 99 187
12 42 16 153 6 189 -3 12 -13 25 -24 30 -86 46 -381 333 -487 475 -76 102
-173 256 -173 274 0 7 14 20 31 30 46 27 99 76 99 92 0 8 9 31 20 51 58 108
-7 274 -140 358 -52 33 -157 41 -228 17z"/>
<path d="M5573 5263 c-62 -21 -147 -111 -174 -181 -26 -70 -27 -152 -4 -209 9
-24 20 -43 24 -43 3 0 32 -29 63 -64 l58 -64 -21 -49 c-79 -188 -164 -310
-343 -489 -108 -108 -265 -234 -291 -234 -17 0 -33 -31 -30 -56 2 -16 4 -29 5
-29 1 0 3 -11 6 -25 5 -32 109 -240 152 -303 17 -27 32 -52 33 -56 0 -3 20
-22 43 -41 24 -19 41 -39 38 -45 -3 -5 -2 -7 3 -3 6 6 62 -28 85 -52 3 -3 19
-12 35 -20 17 -8 32 -18 35 -21 16 -21 68 -9 116 27 17 13 35 24 41 24 6 0 21
10 35 23 13 12 68 57 121 101 96 77 184 168 229 236 90 134 114 199 93 241
-52 101 -149 436 -181 624 -1 11 -8 48 -14 83 -6 34 -8 66 -5 71 3 5 27 17 53
27 70 26 114 65 147 129 59 118 37 245 -57 336 -75 72 -196 98 -295 62z"/>
<path d="M3179 1756 c-2 -2 -80 -6 -174 -9 -232 -8 -399 -16 -465 -22 -30 -2
-98 -7 -150 -10 -117 -7 -242 -17 -360 -30 -30 -3 -107 -10 -170 -15 -228 -20
-427 -40 -545 -55 -66 -8 -125 -15 -132 -15 -22 0 -76 -55 -94 -95 -10 -22
-16 -58 -15 -80 3 -39 32 -113 49 -126 10 -7 -7 -44 -61 -133 -32 -54 -36 -67
-36 -136 -1 -75 -1 -76 48 -139 26 -36 49 -75 50 -88 l1 -24 105 6 c58 4 116
8 130 10 14 2 68 7 120 10 52 3 118 8 145 10 81 7 203 15 310 20 55 3 123 7
150 10 28 2 133 7 235 10 102 4 203 9 225 11 284 24 1966 24 2380 -1 33 -2
134 -6 225 -9 91 -4 194 -9 230 -11 36 -3 106 -7 155 -10 83 -4 161 -9 305
-20 30 -2 98 -6 150 -10 52 -3 111 -8 130 -10 124 -13 200 -16 200 -7 0 6 9
14 20 17 11 3 20 13 20 21 0 9 12 36 26 60 52 89 42 209 -27 306 -21 28 -21
31 -5 82 23 71 27 120 16 189 -12 78 -39 133 -64 129 -10 -2 -39 1 -65 7 -25
6 -73 13 -106 16 -33 3 -67 8 -75 10 -8 2 -46 6 -85 10 -38 3 -83 8 -100 10
-36 5 -321 32 -425 40 -41 3 -91 8 -110 10 -19 2 -75 7 -125 10 -49 3 -115 7
-145 10 -30 2 -98 7 -150 10 -52 3 -138 8 -190 11 -52 3 -142 8 -200 11 -128
6 -1345 15 -1351 9z"/>
</g>
</svg>
