<?xml version="1.0" standalone="no"?>
<!DOCTYPE svg PUBLIC "-//W3C//DTD SVG 20010904//EN"
 "http://www.w3.org/TR/2001/REC-SVG-20010904/DTD/svg10.dtd">
<svg version="1.0" xmlns="http://www.w3.org/2000/svg"
 width="260.000000pt" height="260.000000pt" viewBox="0 0 260.000000 260.000000"
 preserveAspectRatio="xMidYMid meet">
<metadata>
Created by potrace 1.14, written by Peter Selinger 2001-2017
</metadata>
<g transform="translate(0.000000,260.000000) scale(0.100000,-0.100000)"
fill="#000000" stroke="none">
<path d="M1401 2545 c-1 -6 -44 -10 -111 -9 -105 1 -291 -23 -322 -42 -9 -6
-44 -14 -68 -17 -8 -1 -18 -6 -21 -10 -3 -5 -12 -9 -20 -11 -20 -3 -107 -46
-152 -73 -21 -13 -43 -21 -49 -17 -7 5 -8 3 -3 -6 6 -10 4 -12 -9 -7 -9 4 -15
3 -12 -2 8 -12 -52 -53 -66 -45 -6 4 -8 3 -5 -3 3 -5 -13 -25 -36 -44 -22 -19
-50 -44 -61 -56 -10 -12 -24 -19 -30 -16 -6 3 -8 2 -3 -2 10 -11 -33 -56 -46
-48 -6 3 -7 1 -3 -5 3 -6 -7 -24 -23 -41 -16 -16 -27 -32 -25 -34 2 -2 -7 -16
-21 -31 -14 -15 -25 -31 -25 -37 0 -5 -4 -9 -10 -9 -5 0 -9 -3 -8 -7 3 -15
-25 -62 -33 -57 -5 3 -6 -2 -3 -10 6 -15 -6 -21 -29 -17 -5 1 -6 -3 -2 -9 3
-6 10 -8 14 -5 5 2 1 -11 -7 -30 -9 -19 -19 -32 -23 -30 -3 3 -6 -3 -6 -13 1
-27 -14 -72 -23 -67 -4 2 -5 -7 -2 -20 3 -19 0 -25 -14 -26 -11 0 -14 -3 -6
-6 6 -2 10 -8 7 -12 -2 -4 -7 -23 -10 -42 -3 -19 -10 -35 -14 -37 -4 -1 -5
-17 -3 -34 3 -17 1 -28 -5 -25 -5 3 -7 -10 -5 -30 4 -28 2 -34 -9 -28 -11 6
-11 5 -3 -4 13 -14 7 -54 -6 -46 -5 3 -12 1 -15 -5 -4 -6 -1 -9 7 -8 21 5 16
-45 -7 -65 -20 -18 -20 -18 2 -8 20 10 21 9 19 -14 -2 -14 -11 -32 -22 -41
-18 -14 -18 -15 4 -4 24 12 29 2 10 -19 -11 -10 -10 -11 2 -6 12 4 15 -4 17
-37 1 -24 4 -56 8 -72 5 -26 4 -28 -10 -16 -16 14 -21 35 -5 25 6 -4 7 1 3 11
-6 15 -7 15 -15 0 -6 -11 -6 -22 1 -30 6 -7 7 -16 3 -20 -4 -4 -2 -7 3 -6 6 1
17 2 25 1 13 -1 13 -3 0 -10 -8 -6 -17 -8 -20 -6 -4 2 -7 -2 -7 -10 0 -8 2
-13 5 -11 9 9 44 -33 37 -44 -4 -7 -2 -15 4 -19 6 -4 14 -18 17 -32 8 -37 10
-42 26 -79 8 -19 12 -41 8 -49 -5 -8 -1 -29 8 -48 13 -27 18 -31 31 -20 10 8
12 8 8 1 -4 -7 1 -15 10 -18 12 -5 13 -10 5 -18 -12 -12 -5 -41 9 -32 5 3 6
-3 2 -13 -6 -16 -5 -17 12 -3 10 8 16 10 12 3 -4 -6 -4 -13 0 -16 5 -2 2 -2
-4 -1 -7 2 -13 -2 -13 -9 -1 -7 -6 -4 -14 6 -12 16 -14 16 -20 2 -3 -9 -2 -13
3 -10 5 3 12 1 15 -3 3 -5 17 -8 31 -7 20 3 31 -6 55 -42 17 -24 26 -42 21
-38 -5 3 -13 0 -16 -6 -4 -5 -13 -8 -20 -5 -14 5 -14 -18 0 -31 4 -4 5 -2 1 4
-10 18 9 16 25 -3 7 -9 21 -13 34 -10 30 8 69 -34 60 -63 -5 -17 -3 -20 11
-14 14 5 15 3 5 -15 -14 -26 -14 -43 0 -19 6 9 15 14 21 11 8 -5 9 -1 4 11 -6
16 -4 16 10 4 10 -8 12 -15 5 -17 -6 -2 -8 -8 -5 -13 3 -6 12 -5 22 3 15 11
15 11 5 -3 -10 -12 -10 -18 0 -29 9 -10 9 -11 0 -6 -7 4 -13 2 -13 -4 0 -7 8
-9 19 -5 24 7 38 -12 21 -28 -10 -9 -12 -8 -7 6 4 11 3 16 -4 12 -13 -9 -7
-28 12 -31 7 -2 26 -5 41 -9 19 -4 30 0 36 11 6 11 11 13 16 5 4 -6 2 -11 -4
-11 -6 0 -9 -4 -5 -9 3 -5 0 -13 -6 -17 -8 -5 -9 -3 -4 6 5 8 4 11 -3 6 -6 -4
-8 -14 -5 -23 4 -11 3 -14 -5 -9 -17 10 -15 1 4 -14 8 -8 14 -9 13 -4 -4 22 2
33 16 28 11 -4 13 -2 9 9 -3 8 -1 18 5 22 7 4 8 0 4 -11 -5 -13 -3 -15 8 -9
11 6 12 5 1 -6 -16 -18 -15 -29 4 -29 8 0 13 4 10 8 -2 4 0 14 6 22 8 13 9 12
5 -1 -7 -20 11 -39 28 -33 7 3 16 1 19 -4 3 -6 -1 -13 -10 -16 -10 -4 -13 -2
-8 7 4 6 4 9 -1 5 -4 -4 -15 -2 -24 4 -9 7 -13 8 -9 4 4 -5 2 -16 -5 -25 -11
-14 -10 -14 6 -2 12 9 17 10 17 2 0 -7 8 -11 18 -10 31 3 43 -1 37 -11 -3 -6
1 -7 9 -4 9 3 13 11 9 18 -4 7 -2 7 8 -1 12 -10 18 -10 29 0 11 9 10 7 0 -7
-14 -18 -13 -19 3 -13 21 8 37 -21 17 -33 -8 -5 -9 -9 -1 -14 6 -4 11 -2 11 4
0 6 5 8 10 5 6 -4 8 -10 6 -14 -3 -3 4 -7 14 -7 10 0 16 4 13 9 -3 5 0 7 8 5
8 -3 13 -10 12 -16 -2 -6 8 -9 23 -6 14 3 32 0 40 -7 11 -9 17 -9 28 0 23 19
59 -4 52 -32 -3 -12 -3 -16 0 -10 4 10 11 10 26 2 11 -6 18 -7 14 -1 -3 5 4
18 17 28 18 16 19 16 8 2 -12 -16 -11 -18 3 -18 9 0 16 4 16 9 0 6 9 9 19 8
11 0 18 -5 15 -9 -3 -4 9 -5 26 -3 27 3 29 1 20 -15 -18 -34 -10 -34 15 0 14
19 25 29 25 22 0 -7 8 -12 18 -12 14 0 15 2 2 10 -8 5 -10 10 -4 10 14 0 46
-35 39 -43 -3 -4 0 -3 7 2 8 8 8 14 0 24 -9 11 -8 14 3 14 8 0 12 -4 9 -9 -3
-4 -1 -8 5 -8 5 0 11 5 13 12 3 8 7 6 11 -5 4 -10 2 -16 -5 -14 -6 1 -13 -5
-15 -13 -4 -13 -3 -13 6 0 6 8 11 11 11 7 0 -4 8 -3 18 2 13 7 23 6 32 -2 10
-9 11 -9 6 0 -4 8 1 11 14 10 19 -1 24 -10 21 -30 -1 -5 3 -6 8 -2 6 3 7 13 4
22 -5 12 -3 14 7 8 9 -6 11 -4 5 5 -5 8 -3 11 6 8 8 -3 13 -11 11 -17 -4 -18
12 -13 26 9 7 12 8 20 2 20 -5 0 -10 -4 -10 -9 0 -5 -14 -3 -30 6 -17 8 -28
19 -25 24 4 5 8 9 11 9 3 0 2 -5 -1 -10 -3 -6 0 -10 7 -11 7 -1 35 -2 61 -4
27 -2 51 -6 54 -9 3 -3 15 1 27 9 26 19 47 19 23 1 -10 -8 -14 -17 -9 -20 6
-3 13 1 16 10 3 9 11 12 18 8 8 -5 7 0 -2 11 -14 17 -13 18 2 12 10 -3 20 -2
23 4 4 5 10 7 14 5 4 -3 21 3 38 13 21 14 35 16 49 9 19 -9 19 -9 0 6 -13 11
-23 13 -32 6 -8 -7 -13 -6 -17 4 -4 9 -1 18 5 22 6 4 8 3 5 -3 -4 -6 10 -10
33 -11 22 -1 40 3 40 9 0 5 -6 7 -12 3 -10 -5 -10 -3 0 7 7 8 17 15 23 15 5 1
14 2 20 3 5 0 7 7 3 14 -5 7 -1 7 10 -2 20 -16 58 -23 50 -9 -4 5 -12 7 -20 4
-11 -4 -12 -1 -6 12 5 9 7 24 5 32 -4 13 -3 13 6 0 5 -8 7 -18 4 -23 -3 -5 4
-6 17 -2 17 6 21 4 14 -6 -7 -12 -5 -12 9 -1 9 8 21 11 27 7 6 -4 9 -1 8 7 -2
8 6 13 19 12 13 -1 20 3 17 7 -3 5 -9 7 -14 4 -5 -3 -11 -1 -15 4 -3 6 -12 8
-19 5 -20 -8 -28 12 -11 26 15 13 39 4 30 -11 -4 -5 -1 -9 4 -9 6 0 11 5 11
10 0 6 5 10 11 10 5 0 7 -5 3 -12 -4 -7 -3 -8 4 -4 7 4 12 2 12 -5 0 -7 3 -9
7 -6 9 9 -27 48 -38 41 -5 -3 -9 -1 -9 3 0 5 10 14 23 22 20 13 21 13 9 -2
-11 -13 -10 -17 5 -25 15 -8 24 -5 42 14 14 14 18 24 10 22 -8 -2 -19 -11 -25
-22 -8 -13 -13 -15 -18 -7 -4 6 -2 11 4 11 7 0 10 7 7 15 -7 17 9 30 18 15 4
-6 10 -8 15 -5 5 3 14 -3 20 -12 9 -14 10 -14 7 -2 -3 9 3 23 14 32 18 16 24
34 20 64 -3 20 16 24 30 5 13 -15 12 -16 -3 -3 -10 7 -18 9 -18 3 0 -14 28
-23 35 -11 4 5 11 7 16 4 5 -4 9 -1 9 4 0 6 -4 11 -8 11 -18 0 -5 61 18 83 19
17 21 18 9 2 -22 -27 -32 -58 -17 -49 8 5 9 1 4 -12 -7 -18 -6 -18 12 1 11 11
17 24 14 29 -2 4 -8 2 -13 -5 -5 -8 -9 -9 -9 -3 0 12 21 34 33 34 4 0 5 -4 2
-10 -3 -6 -1 -10 4 -10 14 0 14 17 1 25 -8 5 -7 12 2 23 11 14 10 15 -7 8 -18
-6 -18 -5 2 16 18 18 25 20 35 10 11 -11 10 -12 -4 -7 -13 5 -17 2 -15 -14 1
-12 5 -21 10 -21 5 0 6 8 3 17 -6 14 -3 14 16 -3 18 -15 20 -15 9 -2 -7 10
-10 18 -6 18 4 0 0 11 -9 25 -15 23 -14 29 7 26 4 0 7 4 7 11 0 6 3 8 6 5 4
-4 1 -13 -5 -21 -8 -10 -9 -16 -1 -21 6 -4 10 -3 9 2 -1 4 1 16 6 27 5 11 3
21 -4 25 -9 6 -8 11 3 21 9 7 13 16 10 21 -3 5 -1 9 5 9 5 0 18 18 28 41 14
33 22 40 39 36 15 -3 21 0 17 9 -2 7 -10 12 -16 10 -7 -1 -9 -1 -5 1 4 2 6 10
4 16 -1 7 -1 9 1 5 7 -13 23 -9 21 5 -2 6 4 10 12 9 8 -2 12 0 8 4 -4 4 -3 13
3 20 7 9 6 12 -8 9 -10 -1 -17 -8 -15 -14 1 -6 -2 -11 -8 -11 -12 0 -13 13 -2
24 4 4 7 11 7 14 1 4 6 16 12 27 6 11 11 23 12 28 1 4 1 8 2 10 0 1 2 11 4 22
5 24 34 47 49 38 6 -3 8 -3 4 2 -4 4 -2 15 5 24 6 8 -1 5 -17 -7 -16 -12 -32
-19 -35 -16 -3 4 0 9 7 11 6 3 9 10 6 15 -4 7 -2 8 4 4 11 -7 17 7 12 29 -1 6
-4 25 -5 43 -3 28 -1 32 15 27 21 -7 36 10 19 21 -8 4 -9 3 -5 -4 4 -7 3 -12
-2 -12 -17 0 -22 13 -9 28 9 13 9 14 0 8 -7 -4 -13 -3 -13 2 0 5 10 14 23 21
22 11 22 11 -3 5 -20 -6 -23 -4 -15 7 6 8 10 28 10 44 0 17 6 33 15 37 12 5
12 7 -2 7 -10 1 -18 8 -18 17 0 8 4 13 9 9 5 -3 13 0 17 6 4 7 3 9 -3 6 -6 -4
-16 0 -22 7 -13 16 2 32 19 21 6 -3 10 -1 10 4 0 6 -8 11 -19 11 -13 0 -18 7
-18 25 0 13 3 22 8 20 4 -3 11 0 15 6 4 7 3 9 -3 6 -6 -4 -17 1 -24 10 -12 14
-12 16 1 8 12 -6 13 -5 3 5 -10 11 -9 16 5 27 16 12 15 12 -3 6 -18 -6 -19 -5
-5 12 8 10 10 16 3 12 -6 -4 -14 -3 -17 2 -12 18 -14 76 -4 89 8 9 7 11 -3 7
-17 -6 -46 76 -33 96 4 7 3 10 -3 6 -16 -10 -34 38 -20 52 9 9 8 10 -7 5 -16
-6 -18 -4 -14 14 4 12 1 25 -4 29 -7 4 -8 1 -3 -8 5 -10 5 -11 -3 -4 -6 6 -12
19 -14 30 -1 11 -11 29 -20 39 -10 11 -18 26 -18 33 0 7 -5 13 -11 13 -5 0 -7
5 -4 10 3 6 2 10 -3 10 -5 0 -17 16 -28 35 -10 19 -22 35 -26 35 -5 0 -8 5 -8
10 0 6 -29 40 -64 77 -36 37 -62 71 -59 77 3 5 2 6 -3 3 -5 -3 -24 7 -42 22
-17 16 -56 45 -87 66 -30 21 -55 43 -55 48 0 6 -3 7 -6 4 -6 -6 -61 19 -74 34
-33 36 -330 128 -417 129 -17 0 -34 6 -36 13 -3 6 -6 8 -6 2z m-1271 -1465 c0
-5 -2 -10 -4 -10 -3 0 -8 5 -11 10 -3 6 -1 10 4 10 6 0 11 -4 11 -10z m92
-278 c-4 -11 -6 -11 -13 -1 -4 7 -5 17 -3 21 3 4 0 8 -6 8 -6 0 -8 5 -5 11 9
14 34 -21 27 -39z m168 -243 c0 -15 -29 -17 -40 -3 -10 12 -8 14 14 12 14 -1
26 -5 26 -9z m1794 -44 c3 -8 1 -15 -4 -15 -6 0 -10 7 -10 15 0 8 2 15 4 15 2
0 6 -7 10 -15z m-61 -62 c-7 -3 -13 -9 -13 -14 0 -6 6 -7 13 -3 6 4 4 -2 -6
-14 -11 -11 -25 -18 -33 -15 -15 6 -20 25 -5 21 5 -2 8 0 8 4 -3 10 37 38 43
31 3 -3 -1 -8 -7 -10z m-1557 -58 c18 -13 18 -14 -4 -8 -12 3 -25 9 -28 14 -8
14 10 11 32 -6z m5 -48 c-10 -9 -11 -8 -5 6 3 10 9 15 12 12 3 -3 0 -11 -7
-18z m42 -1 c7 4 8 3 4 -1 -17 -19 -35 -13 -29 9 5 18 7 18 10 3 2 -10 8 -14
15 -11z m1354 -42 c15 5 14 3 -2 -9 -18 -14 -21 -14 -31 0 -6 8 -15 11 -19 7
-5 -4 -5 -1 -1 6 6 10 11 10 22 1 7 -6 22 -8 31 -5z m-1242 -14 c3 -5 1 -10
-4 -10 -6 0 -11 5 -11 10 0 6 2 10 4 10 3 0 8 -4 11 -10z m59 -29 c3 -5 -1
-11 -9 -14 -9 -4 -12 -1 -8 9 6 16 10 17 17 5z m1003 -26 c0 -8 -4 -12 -9 -9
-5 3 -6 10 -3 15 9 13 12 11 12 -6z m-906 -23 c-7 -2 -18 1 -23 6 -8 8 -4 9
13 5 13 -4 18 -8 10 -11z m827 -4 c-2 -7 3 -12 10 -10 17 3 15 -3 -5 -19 -12
-10 -14 -10 -9 -1 4 7 1 15 -9 18 -13 6 -14 8 -3 15 17 11 18 11 16 -3z m-828
-18 c-12 -8 -12 -10 -1 -10 8 0 12 -3 8 -6 -9 -9 -28 6 -22 17 4 5 12 9 18 9
7 0 6 -4 -3 -10z m70 -10 c-7 -4 -11 -10 -11 -14 1 -3 -1 -6 -4 -6 -3 0 -5 3
-4 7 0 4 -8 10 -18 14 -12 5 -8 7 15 6 18 0 28 -3 22 -7z m54 -13 c4 4 4 -1 0
-12 -5 -11 -9 -14 -12 -7 -2 7 -8 10 -12 7 -5 -3 -12 0 -16 6 -5 8 -3 9 6 4
10 -6 12 -3 7 11 -7 18 -6 18 6 2 8 -10 17 -15 21 -11z m621 13 c-3 -5 2 -10
12 -10 15 0 16 -2 3 -10 -9 -6 -17 -5 -22 3 -6 11 -2 27 8 27 3 0 2 -4 -1 -10z
m58 -11 c-8 -8 -13 -7 -18 2 -5 8 -4 10 3 5 7 -4 12 -2 12 5 0 7 3 9 7 6 4 -4
2 -12 -4 -18z m-623 -4 c0 -12 -19 -12 -23 0 -4 9 -1 12 9 8 7 -3 14 -7 14 -8z
m490 -5 c0 -5 -4 -10 -10 -10 -5 0 -10 5 -10 10 0 6 5 10 10 10 6 0 10 -4 10
-10z m47 -15 c1 -11 -17 -8 -30 4 -4 4 0 7 10 6 10 0 19 -5 20 -10z m-513 -7
c-3 -4 0 -8 6 -8 6 0 8 -4 5 -10 -10 -16 -22 -12 -27 8 -3 11 0 19 8 19 7 0
11 -4 8 -9z m116 2 c8 -5 11 -10 5 -10 -5 0 -17 5 -25 10 -8 5 -10 10 -5 10 6
0 17 -5 25 -10z m50 6 c0 -2 -7 -7 -16 -10 -8 -3 -12 -2 -9 4 6 10 25 14 25 6z
m160 -24 c0 -5 -7 -9 -15 -9 -8 0 -12 4 -9 9 3 4 9 8 15 8 5 0 9 -4 9 -8z m46
-4 c3 -4 -1 -5 -10 -4 -8 1 -18 5 -22 8 -3 4 1 5 10 4 8 -1 18 -5 22 -8z"/>
<path d="M105 1620 c-3 -6 1 -7 9 -4 18 7 21 14 7 14 -6 0 -13 -4 -16 -10z"/>
<path d="M2515 1301 c-3 -5 -2 -12 3 -15 5 -3 9 1 9 9 0 17 -3 19 -12 6z"/>
<path d="M91 1204 c0 -11 3 -14 6 -6 3 7 2 16 -1 19 -3 4 -6 -2 -5 -13z"/>
<path d="M2490 1161 c0 -6 4 -12 8 -15 5 -3 9 1 9 9 0 8 -4 15 -9 15 -4 0 -8
-4 -8 -9z"/>
<path d="M114 1042 c3 -5 0 -13 -6 -15 -9 -4 -10 -6 -1 -6 17 -1 25 16 12 25
-7 4 -9 3 -5 -4z"/>
<path d="M2469 1027 c-3 -13 -7 -27 -9 -32 -1 -3 -3 -14 -4 -25 0 -12 -8 -25
-16 -30 -13 -8 -12 -10 3 -10 9 0 18 5 18 10 1 6 2 20 3 33 1 12 7 21 13 20 6
-1 10 4 9 12 -2 16 -15 32 -17 22z"/>
<path d="M105 1000 c-4 -6 -1 -9 6 -8 6 2 14 -3 17 -11 3 -9 0 -11 -9 -7 -8 4
-4 -1 9 -12 12 -11 18 -22 12 -24 -6 -2 -1 -9 11 -16 17 -11 20 -11 13 0 -8
13 -14 32 -16 54 -2 17 -36 36 -43 24z"/>
<path d="M159 898 c-8 -26 -5 -36 9 -31 11 5 13 3 7 -7 -5 -9 -4 -11 3 -6 9 5
9 13 2 27 -9 17 -18 24 -21 17z"/>
<path d="M2387 813 c-10 -10 -8 -23 4 -23 5 0 7 5 3 12 -5 8 -2 9 10 5 10 -4
15 -3 11 3 -7 12 -19 13 -28 3z"/>
<path d="M2350 743 c-20 -34 -20 -37 -4 -52 17 -15 17 -15 3 3 -12 18 -12 19
2 14 11 -4 16 -1 16 10 0 34 3 43 13 37 6 -3 7 1 4 9 -8 22 -9 21 -34 -21z"/>
<path d="M190 759 c0 -5 3 -8 8 -8 4 1 14 1 22 0 13 -1 13 -2 0 -11 -8 -5 -10
-10 -4 -10 6 0 18 8 25 17 10 11 10 14 2 9 -7 -4 -13 -3 -13 1 0 5 -9 9 -20
10 -11 1 -20 -2 -20 -8z"/>
<path d="M2335 659 c-4 -6 -5 -12 -2 -15 2 -3 7 2 10 11 7 17 1 20 -8 4z"/>
<path d="M275 649 c-4 -6 -5 -12 -2 -15 2 -3 7 2 10 11 7 17 1 20 -8 4z"/>
<path d="M297 645 c-4 -8 -1 -15 5 -15 7 0 7 -4 -1 -14 -8 -10 -9 -16 -1 -21
5 -3 10 -3 10 1 0 3 6 1 14 -5 22 -18 28 3 8 25 -10 10 -19 23 -19 27 -2 17
-11 18 -16 2z m34 -42 c12 -16 12 -17 -2 -6 -9 7 -20 9 -24 5 -5 -4 -5 -1 -1
6 9 16 11 15 27 -5z"/>
<path d="M390 520 c0 -5 5 -10 10 -10 6 0 10 5 10 10 0 6 -4 10 -10 10 -5 0
-10 -4 -10 -10z"/>
<path d="M356 498 c3 -5 10 -6 15 -3 13 9 11 12 -6 12 -8 0 -12 -4 -9 -9z"/>
<path d="M396 494 c-9 -8 -16 -18 -16 -22 0 -3 5 -1 12 6 8 8 15 9 25 0 17
-13 28 -4 20 17 -8 19 -21 19 -41 -1z"/>
<path d="M417 447 c-3 -8 1 -14 8 -14 7 0 11 6 8 14 -3 7 -6 13 -8 13 -2 0 -5
-6 -8 -13z"/>
<path d="M2150 456 c0 -2 8 -10 18 -17 15 -13 16 -12 3 4 -13 16 -21 21 -21
13z"/>
<path d="M473 407 c0 -12 1 -16 4 -9 3 6 9 9 14 6 6 -3 5 -11 -2 -20 -6 -8 -9
-14 -6 -14 2 0 10 6 16 13 8 11 7 18 -7 30 -17 15 -18 15 -19 -6z"/>
<path d="M1955 330 c-3 -5 -2 -10 4 -10 5 0 13 5 16 10 3 6 2 10 -4 10 -5 0
-13 -4 -16 -10z"/>
<path d="M575 300 c-3 -6 1 -7 9 -4 18 7 21 14 7 14 -6 0 -13 -4 -16 -10z"/>
<path d="M1855 239 c-4 -6 -13 -8 -21 -5 -22 8 -17 -2 7 -15 17 -9 20 -8 14 2
-6 9 -3 11 8 6 11 -4 14 -2 10 9 -6 17 -10 17 -18 3z"/>
<path d="M779 203 c-7 -10 -10 -15 -5 -11 5 4 17 3 28 -3 18 -9 18 -8 8 10
-13 25 -14 26 -31 4z"/>
<path d="M1830 200 c0 -5 5 -10 11 -10 5 0 7 5 4 10 -3 6 -8 10 -11 10 -2 0
-4 -4 -4 -10z"/>
<path d="M1750 170 c-9 -6 -10 -10 -3 -10 6 0 15 5 18 10 8 12 4 12 -15 0z"/>
<path d="M1690 139 c0 -5 5 -7 10 -4 6 3 10 8 10 11 0 2 -4 4 -10 4 -5 0 -10
-5 -10 -11z"/>
<path d="M1014 129 c-3 -6 -3 -13 0 -16 3 -4 6 0 6 8 0 12 2 12 9 0 5 -8 11
-9 15 -3 3 5 -1 12 -9 16 -8 3 -17 1 -21 -5z"/>
<path d="M1550 110 c6 -11 13 -20 16 -20 2 0 0 9 -6 20 -6 11 -13 20 -16 20
-2 0 0 -9 6 -20z"/>
<path d="M1153 102 c1 -12 6 -18 15 -15 7 3 10 9 5 12 -4 3 -11 10 -15 15 -4
4 -6 -1 -5 -12z"/>
<path d="M1245 99 c-4 -6 -5 -12 -2 -15 2 -3 7 2 10 11 7 17 1 20 -8 4z"/>
<path d="M1282 103 c-7 -2 -17 -14 -23 -26 -9 -20 -9 -20 4 -4 8 9 19 17 26
17 6 0 11 5 11 10 0 6 -1 10 -2 9 -2 0 -9 -3 -16 -6z"/>
<path d="M1131 84 c0 -11 3 -14 6 -6 3 7 2 16 -1 19 -3 4 -6 -2 -5 -13z"/>
<path d="M1380 79 c0 -5 5 -7 10 -4 6 3 10 8 10 11 0 2 -4 4 -10 4 -5 0 -10
-5 -10 -11z"/>
</g>
</svg>
